<svg width="540" height="440" fill="none" xmlns="http://www.w3.org/2000/svg"><path d="M251.763 428.347V4.12m215.64 218.663l-425.235.001" stroke="#673DE6" stroke-miterlimit="10" stroke-dasharray="7 7"/><path d="M98.597 436.408c42.852 0 77.591-34.738 77.591-77.59 0-42.852-34.739-77.59-77.59-77.59-42.852 0-77.59 34.738-77.59 77.59 0 42.852 34.738 77.59 77.59 77.59z" fill="#F4F5FF"/><path d="M252.373 4.364H50.169a8 8 0 0 0-8 8v205.381" stroke="#C5CDE9" stroke-miterlimit="10"/><path d="M254.865 428.374c117.381 0 212.537-94.842 212.537-211.837 0-116.994-95.156-211.836-212.537-211.836S42.328 99.543 42.328 216.537c0 116.995 95.156 211.837 212.537 211.837z" stroke="#C5CDE9" stroke-miterlimit="10"/><path d="M99.102 359.322L455.815 2.609h63.986" stroke="#C5CDE9" stroke-miterlimit="10"/><path d="M411.619 80.313a7.232 7.232 0 1 0 0-14.464 7.232 7.232 0 0 0 0 14.464zm-281.706 312.64a4.822 4.822 0 1 0 0-9.644 4.822 4.822 0 0 0 0 9.644z" fill="#C5CDE9"/><circle cx="98.585" cy="358.806" r="78.085" stroke="#C5CDE9"/><path d="M255.176 310.222c53.641 0 97.125-43.485 97.125-97.126 0-53.64-43.484-97.125-97.125-97.125s-97.125 43.485-97.125 97.125c0 53.641 43.484 97.126 97.125 97.126z" fill="#fff" stroke="#673DE6" stroke-miterlimit="10" stroke-dasharray="7 7"/><circle cx="99.051" cy="359.328" r="35.073" stroke="#C5CDE9"/><circle cx="98.557" cy="358.834" r="6.423" fill="#673DE6"/><circle cx="92.134" cy="80.672" r="35.073" stroke="#C5CDE9"/><circle cx="91.64" cy="80.178" r="6.423" fill="#673DE6"/><rect x="352.016" y="131" width="167.984" height="33.597" rx="8" fill="#F4F5FF"/><circle cx="502.5" cy="145.5" r="5" stroke="#673DE6"/><path d="M498.457 149.418l-5.113 5.842" stroke="#673DE6"/><rect x="209.235" y="177.022" width="91.885" height="24.104" rx="7.5" stroke="#C5CDE9"/><rect x="209.235" y="205.892" width="91.885" height="25.359" rx="7.5" stroke="#C5CDE9"/><rect x="209.235" y="234.761" width="91.885" height="25.359" rx="7.5" stroke="#C5CDE9"/><path d="M235.095 189.074h60.25m-60.25 30.125h60.25m-60.25 28.869h60.25" stroke="#C5CDE9"/><circle cx="219.443" cy="189.579" r="2.676" stroke="#C5CDE9"/><circle cx="227.794" cy="189.579" r="2.676" stroke="#C5CDE9"/><circle cx="219.443" cy="218.449" r="2.676" stroke="#C5CDE9"/><circle cx="227.794" cy="218.449" r="2.676" stroke="#C5CDE9"/><circle cx="219.443" cy="247.319" r="2.676" stroke="#C5CDE9"/><circle cx="227.794" cy="247.319" r="2.676" stroke="#C5CDE9"/><path d="M323.36 220.119v29.218a12.672 12.672 0 0 1-1.286 5.558 12.642 12.642 0 0 1-3.592 4.426l-17.852 13.913-17.852-13.903a12.658 12.658 0 0 1-4.873-9.994v-29.218l22.725-5.06 22.73 5.06z" fill="#fff" stroke="#C5CDE9" stroke-miterlimit="10"/><path d="M308.208 236.559h-15.156a2.525 2.525 0 0 0-2.523 2.528v13.918a2.524 2.524 0 0 0 2.523 2.527h15.156a2.524 2.524 0 0 0 2.523-2.527v-13.918a2.525 2.525 0 0 0-2.523-2.528zm-1.263-3.793a6.33 6.33 0 0 0-1.849-4.473 6.309 6.309 0 0 0-8.93 0 6.328 6.328 0 0 0-1.85 4.473v3.793h12.629v-3.793z" fill="#fff" stroke="#673DE6" stroke-miterlimit="10"/><path d="M300.631 250.473v-5.06" stroke="#673DE6" stroke-miterlimit="10" stroke-linecap="round"/><path d="M300.631 259.331v13.913m0-50.598v-7.587M58.907 25.808a4.906 4.906 0 0 0 4.907-4.904A4.906 4.906 0 0 0 58.907 16 4.906 4.906 0 0 0 54 20.904a4.906 4.906 0 0 0 4.907 4.904zm15.815 0a4.906 4.906 0 0 0 4.907-4.904A4.906 4.906 0 0 0 74.722 16a4.906 4.906 0 0 0-4.907 4.904 4.905 4.905 0 0 0 4.907 4.904zm15.814 0a4.906 4.906 0 0 0 4.907-4.904A4.906 4.906 0 0 0 90.536 16a4.906 4.906 0 0 0-4.907 4.904 4.905 4.905 0 0 0 4.907 4.904z" stroke="#C5CDE9" stroke-miterlimit="10"/></svg>