<svg width="533" height="428" fill="none" xmlns="http://www.w3.org/2000/svg"><path fill-rule="evenodd" clip-rule="evenodd" d="M47 50h435a7 7 0 0 1 7 7v306a7 7 0 0 1-7 7h-94v1h94a8 8 0 0 0 8-8V57a8 8 0 0 0-8-8H47a8 8 0 0 0-8 8v306a8 8 0 0 0 8 8h136v-1H47a7 7 0 0 1-7-7V57a7 7 0 0 1 7-7z" fill="#C5CDE9"/><mask id="a" style="mask-type:alpha" maskUnits="userSpaceOnUse" x="39" y="49" width="451" height="322"><rect x="39.5" y="49.5" width="450" height="321" rx="7.5" stroke="#C5CDE9" stroke-dasharray="7 7"/></mask><g mask="url(#a)"><path fill="#673DE6" d="M183 338H374V406H183z"/></g><path d="M466.629 63.416l8.926 8.919m-.073-8.846l-8.927 8.927M146 2v369m0-322l185 156.99L146 370M331 2l1 283" stroke="#C5CDE9" stroke-miterlimit="10"/><path d="M1 124.654l99.779-.315v83.094h41.46" stroke="#C5CDE9" stroke-miterlimit="10" stroke-dasharray="7 7"/><path d="M146.223 207.454l92.534.021" stroke="#673DE6" stroke-miterlimit="10" stroke-dasharray="7 7"/><path d="M419.117 243.322H244.933a7.41 7.41 0 0 0-7.413 7.408v34.59a7.41 7.41 0 0 0 7.413 7.408h174.184a7.41 7.41 0 0 0 7.413-7.408v-34.59a7.41 7.41 0 0 0-7.413-7.408z" fill="#F4F5FF" stroke="#C5CDE9" stroke-miterlimit="10"/><path d="M291.552 268.03l122.753-.576" stroke="#C5CDE9" stroke-miterlimit="10"/><path d="M246.171 124.839h174.184a6.911 6.911 0 0 1 6.913 6.909v34.589a6.91 6.91 0 0 1-6.913 6.908H246.171a6.91 6.91 0 0 1-6.914-6.908v-34.589a6.912 6.912 0 0 1 6.914-6.909z" fill="#F4F5FF" stroke="#C5CDE9"/><path d="M259.781 154.245a5.776 5.776 0 0 0 5.777-5.774 5.776 5.776 0 0 0-5.777-5.773 5.776 5.776 0 0 0-5.778 5.773 5.776 5.776 0 0 0 5.778 5.774z" stroke="#C5CDE9" stroke-width="1.5" stroke-miterlimit="10"/><path d="M278.717 154.245a5.776 5.776 0 0 0 5.778-5.774 5.776 5.776 0 0 0-5.778-5.773 5.775 5.775 0 0 0-5.777 5.773 5.775 5.775 0 0 0 5.777 5.774z" fill="#C5CDE9"/><path d="M292.778 149.037l122.764-.566" stroke="#C5CDE9" stroke-miterlimit="10"/><path d="M419.683 183.176H245.499a7.41 7.41 0 0 0-7.413 7.408v34.589a7.411 7.411 0 0 0 7.413 7.409h174.184a7.411 7.411 0 0 0 7.414-7.409v-34.589a7.411 7.411 0 0 0-7.414-7.408z" fill="#fff" stroke="#C5CDE9" stroke-miterlimit="10"/><path d="M259.11 213.092a5.776 5.776 0 0 0 5.777-5.774 5.776 5.776 0 0 0-5.777-5.773 5.776 5.776 0 0 0-5.778 5.773 5.776 5.776 0 0 0 5.778 5.774zm18.936 0a5.776 5.776 0 0 0 5.778-5.774 5.776 5.776 0 0 0-5.778-5.773 5.775 5.775 0 0 0-5.777 5.773 5.775 5.775 0 0 0 5.777 5.774z" fill="#C5CDE9"/><path d="M292.118 207.884l122.753-.566" stroke="#C5CDE9" stroke-miterlimit="10"/><path d="M258.543 273.228a5.776 5.776 0 0 0 5.778-5.774 5.776 5.776 0 0 0-5.778-5.774 5.776 5.776 0 0 0-5.777 5.774 5.776 5.776 0 0 0 5.777 5.774z" fill="#C5CDE9"/><path d="M277.48 273.228a5.775 5.775 0 1 0 0-11.548 5.775 5.775 0 1 0 0 11.548z" stroke="#C5CDE9" stroke-width="1.5" stroke-miterlimit="10"/><path d="M146.223 214.244a5.765 5.765 0 0 0 5.767-5.763 5.765 5.765 0 0 0-5.767-5.763 5.765 5.765 0 0 0-5.767 5.763 5.765 5.765 0 0 0 5.767 5.763z" fill="#673DE5"/><path d="M146.223 238.869c16.794 0 30.408-13.605 30.408-30.388 0-16.782-13.614-30.387-30.408-30.387s-30.408 13.605-30.408 30.387c0 16.783 13.614 30.388 30.408 30.388zM55.907 70.808a4.906 4.906 0 0 0 4.907-4.904A4.906 4.906 0 0 0 55.907 61 4.906 4.906 0 0 0 51 65.904a4.906 4.906 0 0 0 4.907 4.904zm15.815 0a4.906 4.906 0 0 0 4.907-4.904A4.906 4.906 0 0 0 71.722 61a4.906 4.906 0 0 0-4.907 4.904 4.905 4.905 0 0 0 4.907 4.904zm15.814 0a4.906 4.906 0 0 0 4.907-4.904A4.906 4.906 0 0 0 87.536 61a4.906 4.906 0 0 0-4.907 4.904 4.905 4.905 0 0 0 4.907 4.904z" stroke="#C5CDE9" stroke-miterlimit="10"/><path d="M392 371l-13.5 7.794v-15.588L392 371z" fill="#673DE6"/><path d="M145.951 423.832c29.245 0 52.952-23.691 52.952-52.916 0-29.225-23.707-52.916-52.952-52.916C116.707 318 93 341.691 93 370.916c0 29.225 23.707 52.916 52.951 52.916z" fill="#fff" stroke="#C5CDE9" stroke-miterlimit="10"/><path d="M113.604 357.399h24.138m-37.014 12.867h24.137m-16.084 12.868h24.137" stroke="#C5CDE9" stroke-width="1.2" stroke-miterlimit="10"/><path d="M145.784 338.108h-6.438v-6.434h16.095v6.434h-6.438" stroke="#C5CDE9" stroke-width="1.5" stroke-miterlimit="10"/><path d="M150.618 341.325v3.395a28.966 28.966 0 0 1 18.903 10.073 28.927 28.927 0 0 1-2.215 39.721 28.972 28.972 0 0 1-19.908 7.911h-24.116m-.986-14.471a29.172 29.172 0 0 0 7.403 8.446" stroke="#C5CDE9" stroke-width="1.2" stroke-miterlimit="10"/><path d="M118.469 375.108c.151 2.7.677 5.366 1.563 7.921" stroke="#C5CDE9" stroke-miterlimit="10"/><path d="M120.703 362.229a28.66 28.66 0 0 0-2.098 8.037m25.574-28.941v3.395a28.946 28.946 0 0 0-20.918 12.752" stroke="#C5CDE9" stroke-width="1.2" stroke-miterlimit="10"/><path d="M147.398 378.303a4.822 4.822 0 0 0 4.824-4.82c0-2.662-2.16-4.82-4.824-4.82a4.822 4.822 0 0 0-4.823 4.82c0 2.662 2.16 4.82 4.823 4.82zm3.22-8.036l12.865-12.868m11.272-8.037l-4.834-4.82m-3.219 8.037l4.834-4.82m-4.614 14.47a22.522 22.522 0 0 1-8.254 30.749 22.558 22.558 0 0 1-11.259 3.024h-6.438m-20.929 6.423h-3.219" stroke="#C5CDE9" stroke-miterlimit="10"/></svg>